<?xml version="1.0" encoding="UTF-8" standalone="no"?>
<!-- Created with Inkscape (http://www.inkscape.org/) -->

<svg
   version="1.1"
   id="svg2"
   width="2474.7795"
   height="794.58118"
   viewBox="0 0 2474.7795 794.58117"
   sodipodi:docname="signal-2022-05-25-175931_001.jpeg"
   xml:space="preserve"
   inkscape:version="1.2 (dc2aedaf03, 2022-05-15)"
   xmlns:inkscape="http://www.inkscape.org/namespaces/inkscape"
   xmlns:sodipodi="http://sodipodi.sourceforge.net/DTD/sodipodi-0.dtd"
   xmlns="http://www.w3.org/2000/svg"
   xmlns:svg="http://www.w3.org/2000/svg"><defs
     id="defs6" /><sodipodi:namedview
     id="namedview4"
     pagecolor="#ffffff"
     bordercolor="#666666"
     borderopacity="1.0"
     inkscape:showpageshadow="2"
     inkscape:pageopacity="0.0"
     inkscape:pagecheckerboard="0"
     inkscape:deskcolor="#d1d1d1"
     showgrid="false"
     inkscape:zoom="0.24605516"
     inkscape:cx="883.94812"
     inkscape:cy="733.57534"
     inkscape:window-width="1920"
     inkscape:window-height="1015"
     inkscape:window-x="1920"
     inkscape:window-y="29"
     inkscape:window-maximized="1"
     inkscape:current-layer="g8" /><g
     inkscape:groupmode="layer"
     inkscape:label="Image"
     id="g8"
     transform="translate(397.18941,-359.52921)"><path
       style="fill:#000000"
       d="m -393.93937,1152.1892 c -1.778,-1.2673 -3.2405,-2.8455 -3.25,-3.5072 -0.0173,-1.2062 5.86509,-3.281 9.33213,-3.2914 2.33351,-0.01 20.03891,-7.111 25.24039,-10.1273 2.15061,-1.2471 5.9352,-3.3186 8.4102,-4.6034 6.50071,-3.3747 20.00614,-11.9856 27.8783,-17.7749 3.73938,-2.75 8.7084,-6.35 11.04227,-8 2.33387,-1.65 6.11901,-4.4328 8.41142,-6.1841 2.2924,-1.7513 9.34301,-7.1295 15.66801,-11.9518 6.325,-4.8222 12.34699,-9.6219 13.38221,-10.666 1.03521,-1.044 6.18348,-5.089 11.44058,-8.9888 5.25711,-3.8997 10.27778,-7.8099 11.15706,-8.6891 2.47854,-2.4786 15.74949,-13.1768 20.51061,-16.5344 2.35075,-1.6577 6.32693,-4.8077 8.83603,-7 2.509,-2.1922 7.1351,-6.0108 10.2801,-8.4858 3.145,-2.475 7.2761,-6.0539 9.1801,-7.953 1.904,-1.8991 5.4331,-4.7031 7.8425,-6.2311 2.4093,-1.5279 7.2479,-5.3741 10.7524,-8.547 3.5044,-3.1729 10.5441,-9.14385 15.6437,-13.26885 5.0995,-4.125 11.5039,-9.525 14.2318,-12 2.728,-2.475 6.0117,-5.1905 7.2971,-6.0344 1.2854,-0.8439 3.2115,-2.54249 4.2801,-3.77459 1.0687,-1.2321 3.3206,-3.2417 5.0044,-4.4657 1.6837,-1.2239 7.6614,-6.2753 13.2838,-11.2253 5.6223,-4.95 13.8573,-12.0582 18.3,-15.796 4.4426,-3.7378 11.004297,-9.5878 14.581397,-13 3.5772,-3.4122 8.3022,-7.7151 10.5,-9.5619 2.1979,-1.8468 6.9386,-6.1218 10.5349,-9.5 3.5963,-3.3782 14.3954,-13.3421 23.998,-22.1421 9.6026,-8.8 19.6298,-18.1054 22.2827,-20.6786 2.6528,-2.5732 5.1287,-4.7143 5.5019,-4.7581 0.9877,-0.1156 48.2066,-47.2926 65.1786,-65.1207 7.975,-8.3773 15.0948,-15.729 15.8217,-16.337 2.4168,-2.0217 4.2772,-4.0694 7.0977,-7.8123 1.5362,-2.0386 6.4621,-7.703 10.9464,-12.5875 4.4844,-4.8845 10.1773,-11.4874 12.6511,-14.6731 2.4738,-3.1857 6.4841,-8.0963 8.9118,-10.9125 7.010703,-8.1323 13.214503,-16.0818 14.595803,-18.7031 1.6763,-3.1808 7.5383,-11.0296 12.2255,-16.369 2.0625,-2.3495 3.75,-4.7142 3.75,-5.255 0,-0.5407 0.8301,-1.7344 1.8447,-2.6526 1.0146,-0.9182 2.4366,-3.4629 3.1601,-5.655 0.7234,-2.192 1.6847,-3.9855 2.1361,-3.9855 1.3059,0 14.8591,-21.0256 14.8591,-23.0515 0,-1.0068 0.4071,-2.0821 0.9046,-2.3895 3.2196,-1.9899 13.1011,-25.91876 15.2853,-37.01479 1.3893,-7.05799 0.3061,-12.55546 -3.2385,-16.43634 -2.9324,-3.21055 -3.1023,-3.25783 -10.2167,-2.84298 -8.0799,0.47115 -26.6719,6.67458 -41.7347,13.92531 -4.675,2.25039 -14.125003,6.74536 -21.000003,9.98883 -18.7351,8.83877 -47.1327,23.76037 -61.5,32.31527 -3.85,2.2924 -10.15,5.8832 -14,7.9795 -3.85,2.0963 -11.9499996,7.0288 -17.9999996,10.961 -15.7375004,10.2286 -20.0555004,12.9029 -28.5000004,17.6504 -4.125,2.3191 -8.175,4.7821 -9,5.4733 -1.6789,1.4065 -16.2163,10.4221 -22.7411,14.1031 -2.3326,1.316 -8.28,5.193 -13.2165,8.6155 -8.6362,5.9876 -22.1862,14.915 -26.457297,17.4312 -1.128,0.6646 -2.521,1.7896 -3.0953,2.5 -0.5744,0.7104 -3.057,2.3756 -5.517,3.7005 -4.1109,2.2139 -16.2801,10.4769 -32.8596,22.3118 -9.2184,6.5804 -18.2426,12.9072 -27.6132,19.3594 -7.5311,5.1857 -16.1746,11.6668 -26.5,19.8704 -2.475,1.9665 -7.1123,5.2571 -10.3051,7.3125 -3.1929,2.0554 -11.0537,7.741 -17.4686,12.6347 -6.41491,4.8937 -12.84151,9.6187 -14.28134,10.5 -1.43983,0.8813 -4.15397,2.8557 -6.03142,4.3875 -1.87744,1.5318 -11.51353,8.4501 -21.41353,15.374 -9.9,6.9238 -19.22091,13.5455 -20.71314,14.7148 -1.49223,1.1693 -5.02421,3.7011 -7.84884,5.6261 -4.52483,3.0837 -11.95458,8.4203 -31.12915,22.3593 -4.87657,3.545 -14.85837,8.6407 -16.9261,8.6407 -0.47761,0 -0.79784,-1.8 -0.71164,-4 0.10389,-2.6515 0.62034,-4 1.53183,-4 0.75631,0 3.09743,-1.7052 5.20251,-3.7894 4.29973,-4.257 5.77572,-5.3848 15.34453,-11.725 3.7125,-2.4599 6.75,-4.8532 6.75,-5.3186 0,-0.4653 1.1813,-1.3842 2.6251,-2.0421 1.44381,-0.6578 4.48131,-2.699 6.75,-4.536 2.2687,-1.8369 5.4749,-4.0327 7.1249,-4.8795 1.65,-0.8469 4.00049,-2.4842 5.22331,-3.6387 1.22282,-1.1544 4.63706,-3.5551 7.58719,-5.3348 2.95013,-1.7798 7.79964,-5.1567 10.77669,-7.5043 2.97705,-2.3475 10.04395,-7.6468 15.70424,-11.7761 5.66029,-4.1294 10.54594,-8.1711 10.85699,-8.9817 0.31106,-0.8106 1.37484,-1.4738 2.36396,-1.4738 0.98911,0 3.68355,-1.575 5.98762,-3.5 2.30407,-1.925 4.52516,-3.5 4.93575,-3.5 0.41059,0 4.53052,-2.9652 9.15544,-6.5894 4.6248,-3.6241 9.7588,-7.2848 11.4088,-8.1349 1.65,-0.8501 4.35,-2.8054 6,-4.3453 3.7403,-3.4905 16.8894,-13.5609 25.5,-19.5295 3.575,-2.4781 9.2,-6.5119 12.5,-8.9641 3.3,-2.4521 10.725,-7.5821 16.5,-11.4 5.775,-3.8179 11.85,-7.8891 13.5,-9.0473 1.65,-1.1581 8.85,-5.9182 16,-10.5778 7.15,-4.6597 14.125,-9.5294 15.5,-10.8216 1.375,-1.2923 4.975,-3.5922 8,-5.111 3.024997,-1.5187 7.346397,-4.2729 9.602997,-6.1203 2.2567,-1.8473 4.4242,-3.3588 4.8167,-3.3588 0.3926,0 2.1887,-1.125 3.9914,-2.5 1.8027,-1.375 3.614,-2.5 4.0251,-2.5 0.4111,0 1.9437,-0.9228 3.4057,-2.0507 4.3249,-3.3366 19.3534,-12.9493 20.2447,-12.9493 0.4521,0 3.8666,-2.2759 7.5877,-5.0575 3.7212,-2.7817 8.3543,-5.7987 10.2958,-6.7046 1.9414,-0.9059 5.8708,-3.13 8.7319,-4.9425 2.8611,-1.8125 5.6038,-3.2954 6.095,-3.2954 0.4912,0 1.6971,-0.8885 2.6799,-1.9745 0.9828,-1.086 2.6221,-2.2396 3.6429,-2.5636 1.0208,-0.324 5.4587,-3.0283 9.8620004,-6.0095 4.4033,-2.9813 9.5146,-6.0508 11.3584,-6.8212 1.8438,-0.7704 5.7841,-3.1114 8.7560996,-5.2022 2.972,-2.0908 9.2287,-5.784 13.9037,-8.2072 4.675,-2.4232 11.65,-6.3162 15.5,-8.6512 18.8187,-11.41317 57.38,-30.96856 75.000003,-38.0343 4.95,-1.98498 10.125,-4.21056 11.5,-4.94573 1.375,-0.73517 7,-2.63131 12.5,-4.21364 12.0714,-3.4729 23.9896,-3.91309 29.2448,-1.08016 6.1236,3.30103 11.0493,17.16985 9.7654,27.49563 -1.0309,8.29167 -6.8797,25.8509 -11.0611,33.2076 -0.7815,1.375 -2.578,4.9334 -3.9921,7.9075 -1.4141,2.9742 -3.8954,7.0142 -5.5141,8.9779 -1.6186,1.9636 -2.9429,4.073 -2.9429,4.6874 0,0.6144 -1.9125,3.9597 -4.25,7.4339 -2.3375,3.4743 -5.4892,8.1566 -7.0038,10.4051 -1.5146,2.2485 -3.5396,5.3875 -4.5,6.9757 -0.9604,1.5881 -4.1087,5.7174 -6.9962,9.1762 -2.8875,3.4587 -5.25,6.9127 -5.25,7.6754 0,0.7627 -1.3815,2.7084 -3.07,4.3238 -1.6886,1.6154 -4.0192,4.5121 -5.1792,6.4371 -1.1601,1.925 -3.7443,5.311 -5.7427,7.5245 -1.9985,2.2134 -7.3781,8.7384 -11.9548,14.5 -9.766403,12.2946 -16.163903,19.6705 -28.803303,33.2077 -5.0875,5.4489 -9.25,10.3258 -9.25,10.8374 0,0.5117 -0.5904,0.9304 -1.3119,0.9304 -0.7216,0 -2.3605,1.4182 -3.6421,3.1516 -6.1924,8.3757 -56.2198996,58.5252 -79.6541,79.8484 -8.1601,7.425 -17.1252,15.75 -19.9225,18.5 -2.7973,2.75 -8.8217,8.375 -13.3876,12.5 -4.5659,4.125 -9.5162,8.625 -11.0006,10 -1.4845,1.375 -5.8225,5.2627 -9.6401,8.6393 -3.8176,3.3767 -10.9911,9.807 -15.9411,14.2896 -4.95,4.4826 -15.299997,13.5754 -22.999997,20.2063 -7.7,6.6308 -15.6615,13.569 -17.6923,15.4182 -2.0308,1.84919 -8.1058,7.03539 -13.5,11.52479 -5.3942,4.4894 -12.0577,10.2748 -14.8077,12.8564 -2.75,2.5816 -6.6685,5.70235 -8.7078,6.93505 -2.0392,1.2326 -4.8227,3.5662 -6.1854,5.1857 -1.3627,1.6195 -2.8817,2.9446 -3.3756,2.9446 -0.4938,0 -2.4354,1.4977 -4.3145,3.3283 -1.8792,1.8305 -5.1564,4.6238 -7.2828,6.2072 -2.1263,1.5834 -5.2763,4.1975 -7,5.8092 -1.7236,1.6116 -4.7089,4.0876 -6.6339,5.5021 -1.925,1.4145 -6.2,4.8479 -9.5,7.6296 -9.037,7.6179 -15.1751,12.5917 -21.00889,17.0236 -2.89587,2.2 -8.50035,6.7 -12.45439,10 -8.32891,6.9512 -14.8977,12.1122 -28.44837,22.3513 -5.35089,4.0433 -9.9704,7.9808 -10.2656,8.75 -0.29519,0.7693 -0.98931,1.3987 -1.54248,1.3987 -0.55317,0 -2.41753,1.1624 -4.14301,2.5832 -3.36378,2.7697 -14.24501,10.714 -22.48588,16.4168 -2.78173,1.925 -5.07877,3.8375 -5.10453,4.25 -0.0258,0.4125 -0.5556,0.75 -1.17741,0.75 -0.62181,0 -3.31113,1.5666 -5.97626,3.4813 -10.25137,7.3649 -39.9235,23.3943 -44.26043,23.9103 -1.17301,0.1396 -4.21628,1.1944 -6.76283,2.3441 -2.54654,1.1497 -7.04654,2.3789 -10,2.7315 -4.61584,0.5511 -5.82386,0.3176 -8.60263,-1.663 z M 490.89084,961.00246 c -0.675,-0.8133 -1.2641,-2.7722 -1.309,-4.3531 -0.09,-3.1723 4.6242,-15.8526 6.8197,-18.3431 0.7655,-0.8683 1.3918,-1.9055 1.3918,-2.3048 0,-0.9256 2.9941,-7.6362 8.6296,-19.3414 2.4428,-5.0737 5.1123,-11.1264 5.9323,-13.4503 0.8199,-2.324 2.0841,-4.9228 2.8093,-5.7751 0.7252,-0.8523 2.0632,-3.4708 2.9733,-5.8189 0.9101,-2.3481 2.7799,-6.0516 4.1551,-8.2301 1.3752,-2.1785 2.5004,-4.3738 2.5004,-4.8786 0,-0.5047 1.8,-3.8805 4,-7.5018 2.2,-3.6212 4,-7.0422 4,-7.6022 0,-0.5599 0.4611,-1.018 1.0248,-1.018 0.5636,0 1.4571,-1.1373 1.9856,-2.5274 1.2981,-3.4142 15.4041,-25.2999 20.9896,-32.5655 2.475,-3.2195 5.5389,-7.3282 6.8088,-9.1304 4.4827,-6.3621 10.3931,-14.2418 14.051,-18.7325 2.0357,-2.4993 5.0141,-6.5692 6.6186,-9.0442 1.6044,-2.475 3.3907,-4.95 3.9694,-5.5 2.613,-2.4834 8.3262,-10.1914 8.899,-12.0064 0.6848,-2.1693 5.7233,-8.9917 15.0549,-20.3848 4.3277,-5.2838 5.6053,-7.5018 4.7906,-8.3165 -1.1992,-1.1992 -12.366,-1.3325 -30.6923,-0.3663 -14.9971,0.7906 -18.1515,1.1352 -29.2496,3.1953 -2.6008,0.4828 -4.6322,0.8387 -16.2504,2.8468 -13.7072,2.3691 -24.2465,4.6864 -28,6.1563 -1.925,0.7538 -10.25,2.5067 -18.5,3.8952 -8.25,1.3885 -17.25,2.9616 -20,3.4957 -10.2828,1.9972 -37.116,5.9971 -40.191,5.991 -1.755,0 -3.4691,0.4437 -3.809,0.9937 -0.3399,0.55 -1.604,0.9994 -2.809,0.9986 -3.1853,0 -19.6414,3.8914 -23.4233,5.5417 -1.7778,0.7758 -3.9457,1.1367 -4.8175,0.8022 -0.8718,-0.3346 -2.5673,-0.1402 -3.7677,0.4319 -1.2004,0.572 -4.4325,1.5586 -7.1825,2.1924 -7.1909,1.6571 -16.2754,4.0492 -21.6677,5.7055 -5.0949,1.565 -19.4067,3.2904 -27.3323,3.2952 -10.6576,0.01 -15.5013,-6.5672 -12.9981,-17.6403 0.6791,-3.0042 0.5248,-3.2259 -2.9054,-4.173 -3.9476,-1.09 -7.5062,-0.823 -17.8996,1.3427 -7.15,1.4899 -24.4013,7.2928 -31.1969,10.4938 -2.2,1.0363 -10.6301,5.0623 -18.7336,8.9467 -8.1035,3.8844 -15.3159,7.0626 -16.0275,7.0626 -0.7117,0 -2.1815,0.5967 -3.2664,1.3261 -3.7676,2.533 -19.0125,6.8672 -26.0223,7.3982 -9.1408,0.6925 -12.6045,-0.943 -14.9381,-7.0536 -1.3847,-3.6258 -1.4743,-5.0972 -0.5251,-8.6222 0.6294,-2.3377 0.909,-4.4859 0.6213,-4.7736 -0.2878,-0.2878 -2.6799,1.0969 -5.3158,3.077 -2.6358,1.9801 -6.48,4.5201 -8.5425,5.6445 -2.0625,1.1243 -3.75,2.4851 -3.75,3.0239 0,0.5388 -0.5007,0.9797 -1.1127,0.9797 -0.6121,0 -2.5246,1.1636 -4.25,2.5858 -6.8906,5.6795 -29.6188,19.9036 -37.4266,23.4231 -4.5592,2.055 -8.6092,4.0584 -9,4.4519 -1.6469,1.6581 -7.7404,3.5392 -11.4648,3.5392 -8.8791,0 -13.4813,-6.2405 -12.4602,-16.8958 0.8035,-8.3846 4.3228,-14.8545 21.643,-39.789 9.9448,-14.3167 22.7072,-28.3152 25.8149,-28.3152 0.4678,0 2.6082,-1.8 4.7564,-4 3.3144,-3.3942 4.5332,-4 8.048,-4 7.6596,0 8.8838,4.7112 3.4914,13.4362 -3.1815,5.1478 -5.9476,5.3161 -5.1578,0.3138 0.065,-0.4125 -0.5581,-0.75 -1.3849,-0.75 -2.3318,0 -16.5693,15.2207 -22.4497,24 -1.2894,1.925 -3.4209,4.625 -4.7367,6 -1.3158,1.375 -4.0105,5.2 -5.9882,8.5 -10.473,17.4754 -11.6514,19.8722 -12.1082,24.6256 l -0.4683,4.8744 h 3.5902 c 7.9575,0 27.4432,-10.3677 46.4908,-24.7363 2.3796,-1.795 4.7485,-3.2637 5.2641,-3.2637 0.5157,0 3.4494,-2.046 6.5195,-4.5466 3.07,-2.5005 7.3387,-5.2494 9.4858,-6.1085 2.1472,-0.8592 3.904,-1.9489 3.904,-2.4217 0,-0.4727 3.7125,-3.558 8.25,-6.8561 4.5375,-3.2981 10.3412,-7.5838 12.8971,-9.5237 6.2426,-4.7382 7.1373,-4.9768 11.2829,-3.0096 6.7423,3.1994 4.7954,8.3629 -8.8481,23.4662 -2.801,3.1007 -4.5819,6.3789 -4.5819,8.4342 0,2.8259 10.0054,2.0357 18.1595,-1.4342 3.8775,-1.65 7.9089,-3 8.9588,-3 1.0499,0 2.6902,-0.4267 3.6453,-0.9482 2.8312,-1.546 20.6196,-9.7359 26.3924,-12.1514 2.9392,-1.2298 6.0544,-2.8355 6.9227,-3.5682 0.8683,-0.7327 2.7937,-1.3322 4.2786,-1.3322 1.4848,0 5.3328,-1.3292 8.5509,-2.9537 3.2181,-1.6245 6.0918,-2.713 6.3858,-2.419 0.2941,0.2941 1.4113,0.066 2.4826,-0.5078 1.0714,-0.5734 3.4219,-1.3022 5.2234,-1.6195 1.8015,-0.3174 4.2049,-1.0745 5.3409,-1.6825 2.3031,-1.2325 6.0226,-1.595 19.0275,-1.8544 10.0791,-0.201 12.6298,0.9558 16.1053,7.3039 1.6787,3.0664 1.8139,4.2035 0.9046,7.6102 -0.588,2.2028 -0.7134,4.5805 -0.2788,5.2838 1.1312,1.8303 12.1051,1.2073 21.0206,-1.1934 2.3223,-0.6253 5.8328,-1.3004 7.8011,-1.5002 2.997,-0.3041 14.9532,-3.0104 22.5788,-5.1106 1.1,-0.3029 4.3371,-0.9149 7.1935,-1.3599 2.8565,-0.445 5.6636,-1.0996 6.238,-1.4546 1.4407,-0.8904 11.2467,-3.4967 19.0685,-5.0682 14.5237,-2.918 29.5885,-5.6666 31,-5.656 0.825,0.01 3.975,-0.387 7,-0.8736 9.9956,-1.6081 19.5326,-2.9338 25.0642,-3.4841 2.0972,-0.2086 7.5531,-1.3518 12.1244,-2.5404 4.5713,-1.1886 11.1423,-2.5416 14.6022,-3.0067 3.4599,-0.4652 6.7351,-1.1203 7.2781,-1.4559 0.543,-0.3356 2.2121,-0.7711 3.7092,-0.9677 1.497,-0.1966 5.4219,-1.0727 8.7219,-1.9469 3.3,-0.8741 9.3452,-1.7966 13.4338,-2.0499 4.0886,-0.2533 7.8911,-0.9178 8.45,-1.4767 0.5589,-0.5589 2.3887,-1.0211 4.0662,-1.0271 1.6775,-0.01 5.3,-0.6946 8.05,-1.5305 4.885,-1.4847 25.752,-2.7857 53.6554,-3.3452 l 5.6554,-0.1134 11.8446,-11.94 c 6.5145,-6.567 15.7812,-16.017 20.5927,-21 5.9904,-6.204 9.4579,-9.053 11,-9.0378 5.5265,0.055 9.282,7.4477 5.6355,11.0942 -1.036,1.036 -1.8836,2.1344 -1.8836,2.4409 0,0.3066 -2.1183,3.5691 -4.7072,7.25 -2.589,3.681 -6.2284,8.9427 -8.0876,11.6927 -1.8592,2.75 -3.9805,5.675 -4.7139,6.5 -4.0539,4.5599 -14.4168,26.1794 -15.9378,33.25 -0.8782,4.0821 1.7549,3.5739 9.4465,-1.8233 9.3288,-6.5461 13.4964,-9.2018 18.2819,-11.6499 2.3199,-1.1868 5.6082,-3.1953 7.3071,-4.4632 1.699,-1.268 4.6087,-2.8352 6.466,-3.4826 1.8573,-0.6475 6.4159,-2.8993 10.1303,-5.0041 3.7143,-2.1048 7.0162,-3.8269 7.3374,-3.8269 1.0801,0 13.9082,-10.6548 21.908,-18.1964 6.953,-6.5548 8.1857,-8.2572 10,-13.8108 2.2927,-7.0184 3.9568,-8.6144 7.94,-7.6147 6.5382,1.641 7.9555,6.3599 4.9459,16.468 -2.5715,8.6367 -1.9791,41.0083 0.7817,42.7146 2.2629,1.3986 11.8564,-2.8162 16.7399,-7.3545 0.7657,-0.7115 4.1528,-2.6716 7.527,-4.3557 3.3741,-1.6841 7.3271,-4.1803 8.7843,-5.547 1.4572,-1.3668 5.3394,-3.9067 8.6272,-5.6443 3.2878,-1.7376 9.8148,-5.2967 14.5045,-7.9092 4.6896,-2.6125 9.4783,-4.75 10.6415,-4.75 1.1632,0 5.3349,-1.125 9.2704,-2.5 7.5278,-2.6301 20.8069,-3.5557 20.8069,-1.4504 0,0.5773 -0.6759,2.3567 -1.5019,3.9541 -1.5131,2.9259 -5.835,5.3512 -15.9981,8.9773 -5.9068,2.1075 -21.2329,10.0097 -30.7676,15.8638 -3.7222,2.2853 -7.1223,4.1552 -7.5559,4.1552 -0.9359,0 -13.2173,8.1941 -21.6765,14.4625 -12.1025,8.9682 -18.767,11.0692 -25.7304,8.1115 -4.6351,-1.9688 -6.415,-4.6622 -7.3178,-11.074 -0.3873,-2.75 -1.107,-5.5078 -1.5994,-6.1284 -0.5347,-0.6738 -0.4619,-2.2686 0.1807,-3.9586 0.831,-2.1859 0.6893,-4.2589 -0.6223,-9.1046 -1.6098,-5.9469 -1.8344,-6.2448 -4.3046,-5.708 -3.2606,0.7086 -21.9095,10.0207 -24.6062,12.2869 -1.1,0.9244 -4.025,2.7447 -6.5,4.0452 -2.475,1.3005 -5.1914,2.9556 -6.0365,3.6778 -0.8451,0.7223 -3.5982,2.2252 -6.1179,3.3398 -2.5198,1.1146 -5.1459,2.7068 -5.8359,3.5382 -0.69,0.8314 -1.6761,1.5117 -2.1912,1.5117 -0.5151,0 -4.3975,2.6282 -8.6275,5.8405 -4.2301,3.2123 -10.6689,7.2568 -14.3084,8.9878 -3.6396,1.731 -7.2396,3.8991 -8,4.818 -1.9633,2.3724 -8.8283,5.3058 -12.4776,5.3317 -5.609,0.04 -8.7029,-6.7231 -6.2289,-13.6159 1.0507,-2.9274 1.066,-3.7751 0.074,-4.1086 -1.9304,-0.6489 -1.4772,-2.2535 0.6365,-2.2535 1.3602,0 2.0246,-0.9068 2.3815,-3.25 0.2722,-1.7875 0.2861,-3.4747 0.031,-3.7493 -0.7294,-0.7848 -6.2988,5.86 -6.2988,7.515 0,0.8164 -0.654,1.4843 -1.4533,1.4843 -0.7993,0 -2.2618,1.172 -3.25,2.6044 -0.9882,1.4325 -4.1592,5.2535 -7.0467,8.4913 -2.8875,3.2378 -5.25,6.3398 -5.25,6.8933 0,0.5535 -1.611,2.6949 -3.58,4.7586 -1.9691,2.0638 -4.4948,5.5524 -5.6129,7.7524 -1.118,2.2 -2.8371,4.9 -3.8201,6 -0.983,1.1 -1.9509,2.9 -2.1509,4 -0.1999,1.1 -0.8739,2 -1.4978,2 -0.9767,0 -14.3383,18.6075 -14.3383,19.9677 0,0.2714 -1.6875,3.0233 -3.75,6.1155 -2.0625,3.0921 -4.798,7.4883 -6.079,9.7694 -1.2809,2.281 -3.1375,5.0474 -4.1258,6.1474 -3.1494,3.5054 -5.5409,9.5756 -4.1188,10.4545 0.8902,0.5501 0.704,0.9089 -0.6565,1.2646 -1.1281,0.295 -3.5892,3.7451 -6.0615,8.4972 -2.2893,4.4003 -4.8477,8.5694 -5.6854,9.2646 -0.8376,0.6952 -1.523,2.0413 -1.523,2.9915 0,0.9501 -1.2594,3.4825 -2.7987,5.6275 -1.5393,2.145 -4.4746,7.2751 -6.5229,11.4001 -2.0483,4.125 -4.6065,8.85 -5.685,10.5 -1.0785,1.65 -3.0823,5.25 -4.4529,8 -1.3706,2.75 -2.9202,5.675 -3.4435,6.5 -1.7259,2.7207 -12.8666,26.4006 -14.8199,31.5 -1.8734,4.8908 -2.0139,5.0065 -6.4338,5.2981 -3.0643,0.2022 -4.9135,-0.1778 -5.7458,-1.1807 z"
       id="path116"
       sodipodi:nodetypes="sscssssssssssssssssssssssssssscssssscssssssscssssssssssssssssssssssssssssssssssssssssssssssssssssssssssssssssssssscsssssssssssssssssssssssssssssssssssssssssssssssssssssssssssssssssssssssssssssssssscscssssscssssssssssssssssssssssssssssssscssssssssssssssssssscsssssssssssscssssssssscsscsscsssssssssssssssssssssssssssssssssssssssssssssssssssssssssssssssssssssssssssssss" /><path
       style="fill:#000000"
       d="m 1046.7867,924.12542 c -1.1306,-1.2375 -2.2816,-3.825 -2.5576,-5.74995 -0.4159,-2.9 0.078,-4.2145 2.8813,-7.6683 1.8608,-2.2926 3.3974,-4.7676 3.4145,-5.5 0.017,-0.7324 1.1381,-3.5817 2.4908,-6.3317 1.3528,-2.75 2.4637,-5.5961 2.4688,-6.3246 0.01,-0.7286 1.8091,-4.74123 4.0091,-8.91693 2.2,-4.1757 4,-8.16 4,-8.85395 0,-0.69393 0.6959,-1.95759 1.5464,-2.80812 1.4663,-1.46628 11.4536,-20.72599 11.4536,-22.08731 0,-0.35341 1.125,-2.11751 2.5,-3.92023 1.375,-1.80272 2.5,-3.76072 2.5,-4.35112 0,-1.72946 5.1477,-11.48146 7.2323,-13.70106 1.0521,-1.12019 3.4823,-5.41171 5.4005,-9.53671 1.9182,-4.125 3.8995,-8.175 4.403,-9 0.5035,-0.825 2.9846,-5.20642 5.5135,-9.73648 2.5288,-4.53006 5.0148,-8.49412 5.5243,-8.80901 0.5095,-0.3149 0.9264,-1.30448 0.9264,-2.19908 0,-0.89459 0.8561,-2.55553 1.9025,-3.69098 1.0464,-1.13545 2.91,-3.86445 4.1414,-6.06445 1.2314,-2.2 3.3002,-5.8866 4.5975,-8.19244 1.2972,-2.30585 2.3586,-4.72247 2.3586,-5.37027 0,-1.36263 4.0702,-8.11792 8.7248,-14.48052 1.7737,-2.4245 3.5213,-5.58923 3.8836,-7.03274 0.3623,-1.44351 3.5958,-7.64194 7.1855,-13.7743 3.5897,-6.13235 8.004,-13.94585 9.8096,-17.36334 1.8055,-3.41748 4.1434,-7.46748 5.1953,-9 1.9744,-2.87675 8.2955,-13.04803 12.059,-19.40442 1.1782,-1.98992 2.1422,-4.24708 2.1422,-5.01591 0,-0.76883 2.2401,-4.99071 4.978,-9.38197 2.7379,-4.39125 4.9879,-8.46815 5,-9.05978 0.012,-0.59162 1.1039,-2.09209 2.4263,-3.33436 1.3223,-1.24228 3.8592,-5.25822 5.6374,-8.92432 3.5815,-7.38373 12.8538,-22.68147 17.136,-28.27169 1.5193,-1.98333 3.2276,-4.82987 3.7963,-6.32566 0.5687,-1.49578 2.3822,-4.67913 4.03,-7.07412 1.6478,-2.39498 2.996,-4.76208 2.996,-5.26023 0,-0.49814 1.6172,-2.98142 3.5937,-5.5184 3.7869,-4.86061 6.0036,-11.34975 4.0946,-11.98609 -1.3936,-0.46454 -6.8619,1.43512 -13.1883,4.58158 -2.75,1.36771 -11.75,5.73466 -20,9.70432 -36.2225,17.42922 -54.4114,26.28379 -60,29.20861 -3.3,1.72707 -9.15,4.66052 -13,6.51876 -3.85,1.85825 -12.175,6.03111 -18.5,9.27304 -6.325,3.24193 -16,8.1771 -21.5,10.96705 -5.5,2.78996 -11.125,5.74219 -12.5,6.56052 -1.375,0.81833 -12.85,6.87536 -25.4999,13.46008 -12.65,6.58472 -27.5,14.31421 -33,17.17665 -5.5,2.86243 -11.19432,5.90542 -12.65392,6.76219 -1.4597,0.85677 -7.0847,3.91618 -12.5,6.79869 -5.4154,2.88252 -13.4461,7.18566 -17.8461,9.56255 -4.4,2.37688 -11.6,6.25394 -16,8.61569 -4.4,2.36175 -8.7104,4.92111 -9.5787,5.68746 -0.8684,0.76635 -2.0361,1.39337 -2.5951,1.39337 -0.5589,0 -1.8307,0.9 -2.8262,2 -0.9955,1.1 -2.5277,2.00335 -3.405,2.00744 -0.8772,0.004 -5.195,2.09461 -9.595,4.6456 -4.4,2.55099 -9.842,5.64752 -12.0934,6.88118 -2.2514,1.23365 -6.0463,3.47579 -8.4331,4.98253 -2.3869,1.50674 -9.0948,5.20184 -14.9066,8.21134 -5.8118,3.0095 -11.2419,6.00874 -12.0669,6.66499 -0.825,0.65625 -2.85,1.83501 -4.5,2.61948 -1.65,0.78446 -4.8,2.60612 -7,4.04813 -2.2,1.44201 -6.475,3.98223 -9.5,5.64494 -9.6016,5.27759 -21.2198,12.3678 -27.7819,16.95444 -3.4944,2.44251 -7.4361,4.85252 -8.7593,5.35558 -1.3231,0.50306 -4.6334,2.39284 -7.3562,4.19951 -2.7228,1.80666 -6.8411,4.40984 -9.1518,5.78484 -2.3108,1.375 -6.4923,3.9625 -9.2924,5.75 -2.8,1.7875 -5.5844,3.25 -6.1876,3.25 -0.6031,0 -2.4183,1.39017 -4.0337,3.08928 -1.6154,1.6991 -4.2871,3.77547 -5.9371,4.61416 -1.65,0.83868 -4.134,2.58355 -5.52,3.87748 -1.386,1.29393 -7.33,4.78555 -13.2089,7.75914 -7.282,3.6833 -13.0488,7.51868 -18.093,12.03324 -4.0723,3.64468 -7.8607,6.6267 -8.4187,6.6267 -0.558,0 -1.5963,0.701 -2.3074,1.55778 -1.5273,1.84028 -7.4145,4.44222 -10.0511,4.44222 -1.0201,0 -2.6379,1.2375 -3.595,2.75 -1.546,2.44311 -2.7558,3.89007 -6.9367,8.29666 -2.8865,3.04234 -7.1762,6.73444 -10.3692,8.92484 -1.925,1.3206 -5.0125,3.6973 -6.8611,5.2817 -5.0411,4.32073 -7.9991,5.18333 -10.3811,3.02763 -2.8877,-2.61343 -4.7578,-6.73673 -4.7578,-10.49063 0,-3.7106 1.5282,-5.0475 7.6557,-6.69749 2.1562,-0.58062 6.3025,-3.089 9.214,-5.57419 2.9115,-2.48518 5.946,-4.51852 6.7433,-4.51852 0.7974,0 1.7017,-0.65642 2.0095,-1.45871 0.6647,-1.73202 27.4763,-19.70394 32.0556,-21.48696 1.748,-0.68059 3.4292,-1.89156 3.736,-2.69104 0.3068,-0.79948 2.0266,-2.12778 3.8218,-2.95179 5.3681,-2.46393 15.6764,-8.91586 17.0152,-10.64974 0.6869,-0.88958 4.084,-3.04026 7.5491,-4.77927 3.4651,-1.73902 9.3723,-5.27824 13.1272,-7.86494 3.7549,-2.5867 8.7948,-5.5829 11.1998,-6.65823 2.4051,-1.07532 5.0478,-2.4892 5.8728,-3.14195 6.2889,-4.97585 11.0874,-8.20673 13.1137,-8.82964 2.8043,-0.86207 14.2351,-7.64748 14.7196,-8.73773 0.1834,-0.4125 0.8584,-0.76912 1.5,-0.79249 0.6417,-0.0234 4.3167,-2.05174 8.1667,-4.50748 3.85,-2.45575 7.675,-4.76715 8.5,-5.13645 0.825,-0.3693 5.0627,-2.89117 9.4172,-5.60416 4.3544,-2.71298 14.9294,-8.74704 23.5,-13.40901 8.5705,-4.66197 16.2578,-9.03444 17.0828,-9.71658 2.9348,-2.42659 9.1434,-5.58383 10.9804,-5.58383 1.0264,0 3.1382,-1.06182 4.6929,-2.3596 1.5547,-1.29778 5.9767,-4.06699 9.8267,-6.15381 3.85,-2.08681 8.125,-4.54012 9.5,-5.45179 1.375,-0.91167 5.875,-3.39239 10,-5.51271 4.125,-2.12032 9.2094,-4.92464 11.2986,-6.23184 2.0893,-1.3072 4.9539,-2.81596 6.3659,-3.3528 1.412,-0.53684 7.1276,-3.59655 12.7014,-6.79934 23.1871,-13.32379 42.91382,-23.90066 58.94822,-31.60632 7.5978,-3.65125 16.1478,-8.11722 19,-9.92438 2.8522,-1.80715 9.4608,-5.22026 14.6858,-7.58469 5.225,-2.36442 10.429,-5.1368 11.5644,-6.16084 1.1355,-1.02403 2.4161,-1.86188 2.8458,-1.86188 0.9131,0 32.5367,-15.57001 40.5898,-19.98455 3.025,-1.65825 6.0768,-3.0151 6.7818,-3.01522 1.3038,-2.3e-4 13.9344,-6.55898 15.6682,-8.13607 0.5225,-0.47529 2.21,-0.86416 3.75,-0.86416 1.54,0 2.8,-0.4291 2.8,-0.95355 0,-0.52446 5.0625,-3.50258 11.25,-6.61805 6.1875,-3.11546 12.375,-6.27468 13.75,-7.02048 2.5802,-1.3995 15.5821,-7.47448 20,-9.34479 1.375,-0.58209 3.175,-1.48273 4,-2.00142 1.369,-0.86074 14.8762,-7.23209 26,-12.26428 2.475,-1.11964 5.2814,-2.4321 6.2364,-2.91657 0.9551,-0.48447 2.3051,-0.88122 3,-0.88165 0.695,-4.3e-4 3.9636,-1.28019 7.2636,-2.84391 5.6231,-2.66451 6.3871,-3.46548 12.1611,-12.74921 3.3886,-5.44835 7.1011,-10.98744 8.25,-12.3091 1.1489,-1.32166 2.0889,-2.9458 2.0889,-3.60921 0,-0.66341 1.7073,-3.18206 3.7941,-5.59699 2.0867,-2.41493 6.0074,-7.54079 8.7126,-11.39079 2.7052,-3.85 7.6353,-10.30265 10.9559,-14.33923 3.3206,-4.03658 7.1624,-9.02625 8.5374,-11.08816 3.3793,-5.06749 27.8726,-29.3702 31,-30.75872 1.375,-0.61048 4.1626,-1.84015 6.1947,-2.73259 5.2399,-2.30128 11.1952,-1.16701 15.742,2.9983 l 3.5633,3.26427 v 14.32807 c 0,7.88043 -0.225,18.82806 -0.5,24.32806 l -0.5,10 3.872,-0.30851 c 2.1297,-0.16968 6.8547,-1.58298 10.5,-3.14067 9.9011,-4.23078 22.6747,-8.95092 31.2857,-11.56074 4.2117,-1.27649 8.5601,-2.80387 9.6631,-3.39415 1.1029,-0.59029 11.7935,-4.2551 23.7568,-8.14402 11.9634,-3.88892 22.9781,-7.70502 24.4771,-8.48022 4.1418,-2.14179 19.6741,-7.35478 26.6091,-8.93058 3.39,-0.77031 7.44,-2.04902 9,-2.84157 1.5599,-0.79255 8.9112,-3.35337 16.3362,-5.69072 7.425,-2.33734 14.85,-4.84367 16.5,-5.5696 1.65,-0.72594 6.15,-2.20994 10,-3.29779 3.85,-1.08785 12.4,-3.62857 19,-5.64604 6.6,-2.01747 14.25,-4.28372 17,-5.03612 2.75,-0.75239 10.85,-3.16926 18,-5.37083 16.9295,-5.21276 36.8413,-10.50358 47.5,-12.62133 4.675,-0.92886 9.625,-2.24962 11,-2.93502 1.375,-0.6854 6.1,-2.03274 10.5,-2.9941 4.4,-0.96136 9.575,-2.32178 11.5,-3.02316 1.925,-0.70139 5.5076,-1.60978 7.9614,-2.01865 2.4537,-0.40887 7.1787,-1.65007 10.5,-2.75823 3.3212,-1.10816 8.7386,-2.59983 12.0386,-3.31484 3.3,-0.715 16.35,-4.03589 29,-7.37974 12.65,-3.34386 26.15,-6.54246 30,-7.10801 3.85,-0.56555 9.025,-1.66836 11.5,-2.45069 4.2596,-1.34644 22.7785,-5.55393 26,-5.90719 0.825,-0.0905 6,-1.18493 11.5,-2.43215 5.5,-1.24721 15.175,-3.39689 21.5,-4.77706 6.325,-1.38017 15.2237,-3.38455 19.7749,-4.45417 11.0087,-2.58725 42.601,-8.14957 48.094,-8.46773 2.4029,-0.13917 6.2279,-0.71877 8.5,-1.28801 11.4993,-2.88094 14.7694,-3.42108 22.2543,-3.67582 4.4678,-0.15205 8.9678,-0.72233 10,-1.26729 2.132,-1.12559 8.4042,-1.93013 25.7791,-3.30674 6.6537,-0.52718 14.0403,-1.22239 16.4146,-1.54493 3.5596,-0.48354 4.7253,-0.20288 6.644,1.5997 2.026,1.90332 2.5985,2.01656 4.4258,0.8754 1.7731,-1.10731 2.5267,-1.05193 4.856,0.35688 4.4662,2.70118 4.0234,4.47909 -1.4041,5.63664 -2.6247,0.55981 -5.2152,0.74404 -5.7567,0.40941 -0.9107,-0.56284 -9.745,-1.33253 -15.5819,-1.35758 -1.375,-0.006 -5.425,0.45899 -9,1.0331 -3.575,0.5741 -8.75,1.29457 -11.5,1.60104 -2.75,0.30647 -7.475,1.19339 -10.5,1.97095 -3.025,0.77756 -9.55,1.88823 -14.5,2.46816 -13.1775,1.54383 -22.2211,3.01802 -29,4.72723 -3.3,0.83205 -9.15,1.88511 -13,2.34014 -3.85,0.45502 -9.025,1.29927 -11.5,1.87611 -12.4119,2.89281 -24.1078,5.28713 -29.5,6.03906 -3.3,0.46018 -7.125,1.29012 -8.5,1.8443 -3.9504,1.59218 -9.5071,2.9258 -23.9588,5.75016 -7.4024,1.44668 -14.6083,3.22473 -16.0132,3.95123 -1.4049,0.72651 -4.7984,1.63389 -7.5412,2.01642 -9.8678,1.37624 -40.0788,8.24627 -48.9868,11.13968 -4.8971,1.59062 -10.4981,2.91722 -33.3141,7.8905 -6.2228,1.3564 -12.2978,2.9995 -13.5,3.65133 -1.2023,0.65183 -3.9859,1.51407 -6.1859,1.91609 -6.6301,1.21155 -16.063,3.7353 -19.6359,5.25355 -1.8503,0.78623 -7.4141,2.18032 -12.3641,3.09797 -4.95,0.91766 -11.025,2.26953 -13.5,3.00416 -10.2135,3.0316 -19.0773,5.49322 -29,8.0538 -5.775,1.49025 -12.075,3.31126 -14,4.04668 -1.925,0.73542 -5.075,1.62273 -7,1.97178 -1.925,0.34906 -8.45,2.15174 -14.5,4.00596 -6.05,1.85422 -15.725,4.77332 -21.5,6.48689 -13.4329,3.98584 -25.3992,7.61483 -35.5,10.76598 -4.4,1.37267 -10.925,3.30536 -14.5,4.29487 -3.575,0.9895 -7.85,2.28945 -9.5,2.88877 -1.65,0.59931 -9.525,3.29951 -17.5,6.00044 -23.3366,7.90351 -53.2158,18.35524 -84,29.3832 -21.9621,7.8676 -24.2942,8.75586 -28.1436,10.71966 -2.0772,1.05972 -4.5209,1.92676 -5.4304,1.92676 -2.98,0 -9.5886,4.41503 -11.2103,7.48924 -0.8735,1.65592 -1.9071,5.03576 -2.2968,7.51076 -0.7615,4.83563 -3.8506,16.70074 -11.9761,46 -2.8219,10.175 -5.5354,21.11149 -6.0301,24.30332 -0.4947,3.19182 -1.3695,6.68162 -1.944,7.75511 -1.2565,2.34784 -9.6483,30.83884 -15.0045,50.94157 -2.1248,7.975 -5.7286,20.8 -8.0084,28.5 -4.4699,15.09728 -5.612,19.33987 -12.9209,48 -2.667,10.45775 -6.9447,25.41625 -8.0673,28.20974 -0.4884,1.21535 -1.1911,4.49449 -1.5616,7.28696 -0.4554,3.43324 -1.3293,5.53661 -2.699,6.49595 -1.6889,1.18295 -1.8124,1.67539 -0.7435,2.96336 1.3312,1.60399 1.1833,2.50036 -3.5553,21.54399 -6.5937,26.49956 -7.8833,30 -11.0521,30 -2.2033,0 -3.7745,-4.34976 -2.459,-6.80777 0.6066,-1.13341 1.1029,-3.92897 1.1029,-6.21235 0,-2.28339 0.6425,-6.92547 1.4278,-10.31575 1.4995,-6.47333 3.4639,-15.44999 5.9444,-27.16413 0.8153,-3.85 2.042,-9.60847 2.726,-12.7966 0.684,-3.18813 1.6167,-6.02719 2.0727,-6.30902 0.456,-0.28183 0.8291,-1.45473 0.8291,-2.60646 0,-1.78896 1.7343,-9.74598 6.1656,-28.28792 1.5557,-6.50947 3.5059,-13.47128 6.2522,-22.31917 1.4202,-4.57554 2.5822,-9.58661 2.5822,-11.13569 0,-1.54909 0.6722,-4.10546 1.4938,-5.68083 0.8216,-1.57537 1.4966,-3.89126 1.5,-5.14643 0,-1.25516 0.6288,-3.77221 1.3898,-5.59345 0.7609,-1.82123 1.8966,-5.74427 2.5236,-8.71788 1.0354,-4.91036 4.0063,-15.18582 9.0802,-31.40655 1.0323,-3.3 2.1846,-8.025 2.5608,-10.5 0.3763,-2.475 1.1629,-5.4 1.7481,-6.5 1.2159,-2.28538 3.5128,-10.87393 4.6802,-17.5 0.436,-2.475 1.2752,-5.85 1.8649,-7.5 1.0244,-2.86614 4.7685,-16.78467 7.6666,-28.5 0.7483,-3.025 3.0328,-11.8 5.0768,-19.5 3.7354,-14.07212 5.1618,-25.98718 3.0158,-25.19097 -0.6054,0.22458 -2.9006,0.97716 -5.1006,1.6724 -2.2,0.69525 -4.7775,1.65641 -5.7278,2.13592 -0.9502,0.47951 -6.5752,2.85576 -12.5,5.28056 -15.9263,6.51813 -42.1937,18.01401 -46.7574,20.46328 -2.1919,1.17634 -4.3731,2.13881 -4.8472,2.13881 -1.3076,0 -10.0151,9.97694 -11.2732,12.91667 -0.608,1.42083 -2.6958,4.65949 -4.6393,7.19702 -1.9436,2.53754 -3.8594,5.68754 -4.2574,7 -0.398,1.31247 -2.1871,4.63631 -3.9759,7.38631 -1.7888,2.75 -4.9469,8.10026 -7.0181,11.88947 -2.0711,3.78922 -5.676,9.63922 -8.0108,13 -2.3348,3.36079 -8.1954,13.01382 -13.0234,21.45118 -4.8281,8.43735 -9.3839,15.573 -10.1239,15.85698 -0.7401,0.28399 -1.3456,1.29018 -1.3456,2.23597 0,1.66833 -4.7,10.73627 -12.4738,24.0664 -2.0849,3.575 -5.0977,8.975 -6.6951,12 -1.5974,3.025 -4.1585,7.525 -5.6913,10 -1.5328,2.475 -5.0491,8.775 -7.814,14 -2.7649,5.225 -6.948,12.875 -9.2959,17 -2.3478,4.125 -5.8432,10.425 -7.7674,14 -1.9243,3.575 -4.3455,7.69447 -5.3806,9.15437 -1.035,1.4599 -1.8819,3.2843 -1.8819,4.05422 0,0.76992 -1.35,3.52858 -3,6.13036 -1.65,2.60178 -3,5.10419 -3,5.56092 0,0.45673 -0.8394,1.9036 -1.8653,3.21527 -2.4762,3.16608 -12.1347,21.87407 -12.1347,23.50444 0,0.70457 -0.6071,1.6409 -1.3491,2.08073 -1.2923,0.76609 -2.8505,3.28771 -6.0553,9.79969 -0.812,1.65 -3.0782,5.45983 -5.036,8.46628 -1.9578,3.00645 -3.5596,5.91903 -3.5596,6.47241 0,1.00294 -8.9273,19.81207 -11.6574,24.56131 -2.4688,4.2946 -5.4633,11.2709 -7.3808,17.1947 -1.0138,3.1321 -2.6572,6.9369 -3.652,8.4552 -2.6008,3.96933 -6.5079,14.57523 -9.7736,26.53073 -1.2683,4.64275 -2.1265,5.96735 -4.6976,7.24995 -4.2595,2.125 -6.1175,1.977 -8.5455,-0.6806 z m 225.0197,-371.24998 c 7.3999,-3.575 14.0012,-6.5 14.6696,-6.5 0.6684,0 2.6333,-0.63572 4.3665,-1.41272 6.4684,-2.89995 32.3207,-13.50417 34.7276,-14.24472 2.2691,-0.69818 4.9235,-5.64819 4.9235,-9.18148 0,-1.66668 0.6893,-6.30729 1.5318,-10.31247 0.8426,-4.00518 1.274,-8.45642 0.9587,-9.89165 -0.3152,-1.43523 -0.085,-3.89287 0.5112,-5.46142 1.1116,-2.92373 0.4279,-15.18234 -0.9732,-17.44934 -1.4658,-2.37172 -8.0355,0.0471 -14.3841,5.29597 -11.8107,9.76467 -29.1034,28.17822 -37.2805,39.69692 -4.4748,6.3035 -9.0873,12.31815 -10.25,13.3659 -1.1626,1.04774 -2.1139,2.76061 -2.1139,3.80637 0,1.04576 -1.2908,3.11351 -2.8685,4.59501 -5.9923,5.62691 -10.9428,14.19363 -8.2022,14.19363 0.5111,0 6.9837,-2.925 14.3835,-6.5 z m 150.5774,309.86776 c -2.3845,-2.87319 -1.5765,-23.00542 1.5801,-39.36776 0.9019,-4.675 2.558,-13.675 3.6803,-20 2.8663,-16.1538 3.0794,-17.22251 7.7792,-39 5.4231,-25.12929 5.6223,-26.2865 8.0652,-46.86355 2.0749,-17.47751 1.8876,-20.22984 -1.3674,-20.08696 -1.4389,0.0632 -19.3934,28.65679 -21.6321,34.45051 -0.425,1.1 -2.2854,4.33513 -4.1342,7.18918 -1.8487,2.85405 -4.6749,7.3042 -6.2804,9.88923 -4.0779,6.56589 -14.5809,27.53996 -14.5809,29.11746 0,0.71727 -0.3954,1.30413 -0.8787,1.30413 -0.4833,0 -1.4714,1.43102 -2.1959,3.18004 -0.7244,1.74902 -2.804,5.12792 -4.6213,7.50865 -1.8173,2.38074 -3.3041,5.12459 -3.3041,6.09746 0,0.97286 -0.7411,2.82694 -1.6469,4.12017 -2.265,3.2337 -9.3531,16.20105 -9.3531,17.11101 0,1.02183 -6.58,11.86107 -8.4642,13.94307 -0.8447,0.9334 -1.5358,2.21259 -1.5358,2.84266 0,1.27009 -4.7897,3.98944 -9.3104,5.28595 -3.7736,1.08226 -8.4324,-1.21624 -9.2758,-4.57629 -0.7858,-3.13101 0.1355,-18.42497 1.5218,-25.26272 0.5854,-2.8875 1.4475,-7.3875 1.9157,-10 0.4683,-2.6125 1.5905,-6.1 2.4939,-7.75 0.9033,-1.65 1.6452,-4.87241 1.6486,-7.16091 0,-2.28849 0.9004,-7.01349 1.9933,-10.5 1.0929,-3.4865 1.9929,-7.34513 2,-8.57474 0.013,-2.1837 0.9448,-6.65627 3.4942,-16.76435 0.6935,-2.75 2.5035,-10.4 4.0221,-17 4.8627,-21.13339 9.2741,-30.5 14.3647,-30.5 4.967,0 6.7136,4.2968 3.5706,8.78405 -0.8587,1.22599 -1.9663,4.36362 -2.4614,6.97251 -0.495,2.60889 -2.0138,9.91844 -3.375,16.24344 -1.3612,6.325 -3.233,15.325 -4.1595,20 -0.9265,4.675 -2.3052,9.97777 -3.0637,11.78393 -0.7585,1.80616 -1.3791,4.52059 -1.3791,6.03207 0,1.51148 -0.6842,5.20871 -1.5205,8.21607 -0.8363,3.00736 -2.2156,9.5117 -3.0651,14.45408 -0.8496,4.94238 -2.2399,10.45123 -3.0896,12.2419 -0.8498,1.79066 -1.2611,3.99565 -0.9141,4.89997 0.5768,1.50299 0.801,1.49038 2.6101,-0.14689 1.0886,-0.98511 1.9892,-2.50886 2.0014,-3.38612 0.012,-0.87725 0.9023,-2.72001 1.9778,-4.09501 1.0755,-1.375 1.9655,-3.0625 1.9778,-3.75 0.012,-0.6875 0.463,-1.25 1.0019,-1.25 0.5388,0 1.9537,-1.9125 3.1443,-4.25 1.1905,-2.3375 3.1621,-5.6 4.3813,-7.25 1.2191,-1.65 3.4691,-5.7 4.9998,-9 1.5308,-3.3 3.7702,-7.35 4.9766,-9 1.2063,-1.65 2.9659,-4.8 3.9102,-7 2.5429,-5.92439 4.4937,-9.27347 6.9372,-11.91015 1.2019,-1.29682 2.7945,-4.09755 3.5392,-6.22385 0.7447,-2.1263 2.6539,-5.9304 4.2428,-8.45355 1.5889,-2.52315 2.8889,-4.86566 2.8889,-5.20559 0,-0.33992 1.1683,-2.32553 2.5963,-4.41245 1.4279,-2.08693 4.3462,-7.25865 6.4851,-11.49273 2.1389,-4.23408 5.1443,-9.18408 6.6787,-11 1.5343,-1.81592 3.8614,-5.55168 5.1713,-8.30168 3.6,-7.55831 5.8547,-10.35024 10.113,-12.52264 4.6826,-2.38888 8.582,-2.50932 12.8184,-0.39592 4.902,2.44546 6.1372,5.90565 6.1372,17.19276 0,9.53654 -2.0004,27.01463 -3.9173,34.2258 -0.5117,1.925 -1.4075,6.875 -1.9907,11 -1.4231,10.065 -1.778,11.75453 -4.0221,19.14824 -1.0603,3.49347 -2.8777,11.75176 -4.0387,18.35176 -1.161,6.6 -2.8156,14.025 -3.677,16.5 -2.2476,6.45805 -3.093,10.56382 -3.8092,18.5 -0.3474,3.85 -1.0807,9.025 -1.6295,11.5 -0.5488,2.475 -1.0065,5.175 -1.0171,6 -0.088,6.87981 -2.2568,23.92196 -3.3882,26.62983 -1.5814,3.78489 -5.2304,4.61714 -7.62,1.73793 z m 100.5995,-20.89731 c -2.7443,-1.44433 -5.4894,-3.15354 -6.1002,-3.79825 -1.8601,-1.96333 -4.6513,-11.91277 -4.6094,-16.43073 0.071,-7.69065 4.4799,-24.83482 9.9624,-38.74147 4.3441,-11.01919 17.4179,-37.90039 19.6536,-40.41006 1.3975,-1.56882 4.5894,-7.50271 8.5451,-15.8859 1.1149,-2.36277 3.1593,-5.78025 4.543,-7.59439 1.3837,-1.81414 2.5267,-3.70596 2.54,-4.20404 0.013,-0.49809 1.5861,-2.93061 3.495,-5.40561 1.9089,-2.475 4.66,-6.3 6.1135,-8.5 1.4534,-2.2 3.2699,-4.675 4.0365,-5.5 2.878,-3.09717 6.3284,-7.52195 6.3296,-8.11711 7e-4,-0.33942 1.8683,-1.85272 4.1504,-3.3629 3.4718,-2.29758 4.9317,-2.67059 8.9431,-2.28514 2.6367,0.25335 5.9446,1.21453 7.3509,2.13595 5.2483,3.43884 1.8248,9.34833 -5.4741,9.44906 -3.6205,0.05 -4.911,0.68809 -8.485,4.19572 -6.6455,6.5221 -16.3685,20.85768 -22.8183,33.64344 -1.898,3.76254 -4.9889,9.12187 -6.8687,11.90962 -8.0262,11.90307 -23.1422,47.89272 -26.3659,62.77474 -0.8527,3.93614 -2.0241,8.12157 -2.6032,9.30095 -0.7508,1.52917 -0.7172,3.16143 0.1172,5.68976 0.6436,1.94998 1.0317,4.36004 0.8625,5.35567 -0.2287,1.34527 0.4352,1.89504 2.5845,2.14039 2.4123,0.27535 3.9549,-0.72043 9.2951,-6 3.5215,-3.48158 7.7794,-8.46765 9.462,-11.08015 1.6826,-2.6125 3.4221,-4.75 3.8657,-4.75 0.4436,0 1.7888,-2.02893 2.9892,-4.50874 1.2005,-2.47981 2.9281,-5.06877 3.8392,-5.75324 2.9303,-2.20137 10.5891,-12.05609 12.8687,-16.55828 2.4115,-4.76279 10.211,-15.70993 14.4577,-20.29236 1.4684,-1.58449 2.9661,-4.22967 3.3282,-5.87818 0.3621,-1.64851 1.2287,-3.33747 1.9259,-3.75324 0.6973,-0.41578 6.5704,-8.85596 13.0515,-18.75596 6.4811,-9.9 12.6255,-19.21928 13.6542,-20.70951 1.0287,-1.49023 1.8704,-2.99166 1.8704,-3.33652 0,-0.34486 1.2774,-2.50058 2.8386,-4.79049 4.6387,-6.80382 7.7575,-11.91705 9.8588,-16.16348 2.8001,-5.65862 7.1775,-13.39848 9.8973,-17.5 1.2766,-1.925 4.2878,-8 6.6916,-13.5 2.4038,-5.5 5.5041,-11.8 6.8894,-14 1.3854,-2.2 2.8381,-5.8 3.2282,-8 0.3902,-2.2 2.1863,-6.25 3.9915,-9 1.8051,-2.75 6.5587,-11.075 10.5636,-18.5 4.0048,-7.425 9.1703,-16.2 11.4788,-19.5 2.3085,-3.3 4.7379,-7.35 5.3986,-9 0.6608,-1.65 2.9708,-4.8 5.1335,-7 2.1626,-2.2 3.9541,-4.49276 3.981,-5.09501 0.027,-0.60226 0.8593,-1.82827 1.8496,-2.72447 1.4671,-1.32772 2.4834,-1.44091 5.4883,-0.61123 7.0226,1.93905 7.1394,7.71298 0.292,14.43938 -4.0578,3.98604 -4.6637,4.97801 -8.1812,13.39269 -1.0119,2.42075 -4.0399,7.34448 -6.7288,10.94161 -2.6889,3.59714 -6.45,9.82903 -8.3579,13.84864 -1.908,4.01962 -3.8839,7.30839 -4.391,7.30839 -0.507,0 -0.9219,0.61431 -0.9219,1.36514 0,0.75083 -0.8421,2.43833 -1.8714,3.75 -1.7194,2.1912 -4.0404,7.1363 -12.3839,26.38486 -1.6688,3.85 -3.6577,7.72549 -4.4197,8.61221 -0.7621,0.88671 -1.7905,2.91171 -2.2855,4.5 -0.4949,1.58828 -2.2597,6.14383 -3.9217,10.12344 -1.662,3.97961 -3.3254,8.92961 -3.6965,11 -0.371,2.07039 -1.2357,4.43935 -1.9215,5.26435 -0.6858,0.825 -1.8082,3.3 -2.4942,5.5 -0.686,2.2 -1.6428,4.4275 -2.1264,4.95 -0.4836,0.5225 -0.8792,2.15642 -0.8792,3.63094 0,1.47452 -1.1733,5.77202 -2.6073,9.55 -3.5622,9.38456 -5.1398,14.96415 -5.9008,20.86906 -0.3544,2.75 -1.556,9.275 -2.6702,14.5 -1.8488,8.66993 -3.0535,24.8277 -2.796,37.5 0.1594,7.84174 2.5349,13.62631 6.6954,16.30385 3.3232,2.13875 3.9273,2.21478 8.4293,1.06095 2.6673,-0.68359 4.8496,-1.60783 4.8496,-2.05385 0,-0.44602 0.6136,-0.81095 1.3636,-0.81095 0.75,0 2.4375,-1.05871 3.75,-2.35268 1.3125,-1.29398 3.5016,-2.9398 4.8647,-3.65739 1.3631,-0.71758 3.6131,-2.65859 5,-4.31335 1.3869,-1.65476 4.711,-5.29644 7.3868,-8.09262 2.6758,-2.79618 6.0119,-6.57299 7.4136,-8.39291 1.4017,-1.81992 3.8184,-3.9656 5.3705,-4.76818 1.552,-0.80259 3.093,-2.53989 3.4245,-3.86067 0.3315,-1.32078 2.1381,-3.79851 4.0145,-5.50606 1.8765,-1.70755 3.4118,-3.52327 3.4118,-4.03494 0,-1.11919 4.771,-6.0212 5.8602,-6.0212 0.4232,0 1.5439,-1.62418 2.4905,-3.60929 0.9467,-1.9851 3.2805,-5.2476 5.1865,-7.25 4.8847,-5.13203 13.5043,-15.67724 16.4628,-20.14056 1.375,-2.0744 4.0061,-5.28555 5.8468,-7.13589 1.8407,-1.85034 4.5407,-5.42739 6,-7.94898 1.4593,-2.5216 3.905,-6.1216 5.435,-8 1.53,-1.87841 4.905,-6.29317 7.5,-9.81058 2.595,-3.51742 5.6182,-7.60593 6.7182,-9.08558 1.1,-1.47965 4.0761,-5.80177 6.6136,-9.6047 2.5375,-3.80293 5.7463,-8.11724 7.1308,-9.58734 1.3845,-1.47011 3.3584,-4.24745 4.3864,-6.17186 2.7617,-5.16961 8.6857,-13.67711 12.2452,-17.58533 1.7182,-1.88656 3.124,-3.72683 3.124,-4.08948 0,-1.01588 4.828,-2.98041 7.3245,-2.98041 5.3859,0 9.3449,6.49783 6.1261,10.05458 -0.9056,1.00067 -1.4,2.2182 -1.0988,2.70564 0.3013,0.48744 -1.1592,5.12829 -3.2455,10.31301 -3.4228,8.50609 -5.4545,12.88972 -11.0898,23.92677 -0.9828,1.925 -2.1103,4.625 -2.5054,6 -0.3951,1.375 -4.0106,9.25 -8.0345,17.5 -4.0239,8.25 -8.7064,18.50967 -10.4056,22.79928 -1.6992,4.2896 -3.7276,8.7896 -4.5076,10 -0.78,1.21039 -2.1734,4.22572 -3.0964,6.70072 -0.923,2.475 -3.2517,8.50117 -5.1748,13.39148 -2.8656,7.28693 -3.5942,10.66283 -4.0374,18.7072 -0.6968,12.64538 0.4441,14.90132 7.5361,14.90132 3.4134,0 5.7772,-0.70152 8.4239,-2.5 2.0235,-1.375 3.9241,-2.5 4.2235,-2.5 1.8334,0 17.0741,-13.41138 25.4395,-22.38595 1.9922,-2.13728 5.822,-5.96228 8.5105,-8.5 2.6886,-2.53773 6.9636,-6.86343 9.5,-9.61266 2.5365,-2.74924 6.1488,-6.34924 8.0274,-8 1.8786,-1.65077 4.5786,-4.35139 6,-6.00139 4.8317,-5.60891 14.401,-14.5 15.606,-14.5 0.6602,0 3.9484,-2.8125 7.3071,-6.25 9.9561,-10.18961 14.0659,-13.24109 26.6218,-19.76653 11.0007,-5.71719 12.3218,-6.16371 16.9271,-5.7212 5.2988,0.50915 8.6223,3.14525 8.6223,6.83898 0,3.46445 -6.5624,17.29864 -17.3365,36.547 -3.1242,5.58154 -6.3079,11.88154 -7.0748,14 -0.7669,2.11846 -3.0111,7.04805 -4.9871,10.95464 -1.976,3.90659 -3.8815,8.63159 -4.2344,10.5 -0.353,1.86841 -1.1866,4.07211 -1.8525,4.89711 -2.2393,2.77429 -2.5906,5.31739 -1.4762,10.68527 0.9043,4.35613 1.6524,5.62067 4.0628,6.86712 4.6377,2.39826 13.9856,0.0106 22.5437,-5.75832 2.2798,-1.53674 4.6423,-2.79407 5.25,-2.79407 0.6078,0 1.105,-0.39497 1.105,-0.87772 0,-0.48274 3.8852,-3.51668 8.6338,-6.74209 4.7485,-3.22541 9.7519,-7.33043 11.1187,-9.12228 1.3667,-1.79185 3.0514,-3.25791 3.7437,-3.25791 0.6924,0 1.8686,-0.73464 2.6138,-1.63253 0.7452,-0.8979 4.5128,-3.9986 8.3724,-6.89046 3.8597,-2.89185 9.3357,-7.44471 12.169,-10.11746 7.0608,-6.66084 15.0181,-13.35955 15.8695,-13.35955 0.845,0 5.7031,-3.83417 12.7839,-10.08953 2.8574,-2.52424 8.637,-6.46802 12.8436,-8.76394 4.2066,-2.29593 7.8968,-4.82205 8.2006,-5.61361 0.3037,-0.79156 2.487,-2.69334 4.8516,-4.22618 2.3647,-1.53283 6.9119,-4.93031 10.105,-7.54994 3.1931,-2.61963 7.2431,-5.50324 9,-6.40801 1.7569,-0.90478 4.7836,-3.2659 6.726,-5.24692 3.302,-3.36762 15.2275,-11.10187 17.1182,-11.10187 0.4676,0 0.8502,-0.38762 0.8502,-0.86138 0,-1.50571 14.7122,-12.19503 18.1746,-13.20497 2.802,-0.8173 4.1654,-0.54796 8.6622,1.71132 3.3227,1.66938 5.6938,3.62031 6.2827,5.16944 1.0169,2.67458 1.3675,20.58864 0.4325,22.10138 -0.9107,1.47369 -5.552,19.92507 -5.552,22.07224 0,1.07967 -1.9754,5.73945 -4.3897,10.35508 -2.4144,4.61563 -4.7069,10.26928 -5.0945,12.56366 -0.3877,2.29437 -2.2373,7.11166 -4.1103,10.70508 -1.873,3.59341 -3.4055,7.6399 -3.4055,8.9922 0,1.35229 -0.6695,2.71561 -1.4877,3.0296 -0.8182,0.31398 -2.7922,3.33736 -4.3867,6.71861 -8.8469,18.76096 -15.0636,32.55572 -16.0604,35.63812 -1.3058,4.03795 -7.7063,11.00962 -10.1076,11.00962 -0.9001,0 -2.1617,-1.15247 -2.8035,-2.56105 -0.9983,-2.19104 -0.8047,-3.17894 1.3395,-6.83786 1.3785,-2.35224 2.5064,-5.2786 2.5064,-6.50302 0,-1.22443 1.125,-4.68573 2.5,-7.69178 1.375,-3.00606 2.5,-6.29154 2.5,-7.30107 0,-1.00952 0.833,-2.90869 1.8511,-4.22036 2.0534,-2.64547 8.6818,-17.82738 12.1745,-27.88486 1.2415,-3.575 3.9936,-10.05663 6.1158,-14.40363 2.1223,-4.34699 3.8586,-8.36742 3.8586,-8.93427 0,-0.56686 0.8402,-2.86023 1.867,-5.09638 1.0269,-2.23614 2.4206,-6.76572 3.0971,-10.06572 0.6766,-3.3 1.9178,-8.7 2.7583,-12 2.239,-8.79104 2.5631,-12.65119 1.3325,-15.87077 -0.974,-2.54824 -1.4494,-2.80033 -4.2318,-2.24384 -3.4138,0.68275 -12.2078,6.16046 -15.1873,9.45996 -1.0253,1.13544 -4.1753,3.28385 -7,4.77426 -11.1376,5.87658 -13.4787,7.43904 -19.2474,12.84617 -6.4797,6.07364 -9.3874,8.4686 -12.2722,10.10814 -1.4389,0.8178 -3.757,2.26072 -5.1513,3.20649 -1.3943,0.94578 -4.0561,2.61959 -5.9152,3.71959 -1.859,1.1 -5.027,3.44368 -7.0398,5.20818 -2.0129,1.7645 -4.8716,3.66893 -6.3527,4.23207 -1.4812,0.56314 -3.1239,2.15695 -3.6504,3.54182 -0.5265,1.38486 -1.5737,2.51793 -2.3271,2.51793 -0.7533,0 -2.1847,0.90055 -3.1808,2.00123 -0.9961,1.10068 -4.5742,3.54642 -7.9512,5.43498 -3.3771,1.88857 -6.7579,4.58801 -7.5129,5.99877 -0.755,1.41076 -1.6738,2.56502 -2.0418,2.56502 -0.368,0 -3.1045,2.24009 -6.081,4.97799 -2.9766,2.73789 -6.8752,6.00039 -8.6635,7.25 -1.7883,1.2496 -3.4989,3.03649 -3.8012,3.97086 -0.3023,0.93436 -1.4271,1.97734 -2.4995,2.31772 -1.0725,0.34038 -2.4153,1.4884 -2.984,2.55115 -0.5688,1.06276 -1.7317,1.93228 -2.5843,1.93228 -0.8526,0 -2.9743,1.619 -4.7148,3.59778 -3.0803,3.50181 -12.4689,10.36856 -14.2682,10.43565 -0.4931,0.0184 -3.1465,2.07363 -5.8965,4.56722 -8.1006,7.34526 -21.6295,12.92962 -29.4934,12.17401 -5.8881,-0.56578 -13.3561,-5.10336 -15.449,-9.3869 -0.8364,-1.71173 -2.204,-3.67933 -3.0391,-4.37244 -2.4788,-2.05717 -1.9637,-13.1625 1.018,-21.94847 1.3874,-4.08823 2.8998,-7.91323 3.3607,-8.5 0.461,-0.58677 1.6426,-3.54185 2.6259,-6.56685 0.9832,-3.025 2.7533,-7.075 3.9336,-9 2.4091,-3.92929 10.5433,-20.60253 10.5433,-21.6114 0,-0.35889 1.0125,-2.28065 2.25,-4.27057 3.0726,-4.94074 4.6237,-9.70429 3.6651,-11.25538 -0.6341,-1.02594 -1.4731,-0.93209 -4.106,0.45928 -7.1766,3.79252 -10.9186,6.47809 -16.6685,11.96251 -3.2957,3.14356 -6.4476,5.71556 -7.0043,5.71556 -1.482,0 -15.2916,13.87118 -18.1706,18.25151 -1.3561,2.06332 -3.1407,3.98248 -3.9657,4.26479 -1.466,0.50165 -10.4803,8.95163 -14.5416,13.63128 -1.1229,1.29383 -3.3729,3.5498 -5,5.01326 -1.6271,1.46347 -4.0834,4.2706 -5.4584,6.23807 -1.375,1.96747 -4.2097,4.7842 -6.2994,6.25941 -2.0897,1.4752 -5.6191,4.85557 -7.8431,7.51193 -2.2241,2.65636 -4.6768,4.82975 -5.4506,4.82975 -0.7738,0 -1.4069,0.45 -1.4069,1 0,0.55 -0.4977,1 -1.1061,1 -0.6083,0 -2.0405,1.1879 -3.1825,2.63979 -2.6513,3.37055 -12.9117,10.02565 -16.76,10.87089 -1.6233,0.35653 -2.9514,1.00999 -2.9514,1.45214 0,1.22633 -3.5288,1.88039 -5.1749,0.95917 -0.8025,-0.44907 -2.6467,-1.03186 -4.0984,-1.29509 -1.4516,-0.26324 -3.2647,-0.84948 -4.0291,-1.30276 -2.1558,-1.27841 -7.2407,-7.47341 -9.076,-11.05744 -2.1638,-4.2255 -2.3511,-16.97207 -0.3567,-24.2667 2.0557,-7.51839 8.3673,-23.6688 10.7676,-27.55266 1.0821,-1.75088 1.9675,-4.12324 1.9675,-5.27193 0,-1.14868 2.25,-6.40262 5,-11.67541 2.75,-5.27279 5,-10.09441 5,-10.71471 0,-0.62029 0.6121,-1.83824 1.3602,-2.70655 0.7481,-0.86831 2.6163,-4.95374 4.1514,-9.07874 1.5352,-4.125 3.5268,-8.625 4.4258,-10 4.5737,-6.99493 8.6854,-20.01697 6.3126,-19.99216 -0.4125,0.004 -2.325,2.53249 -4.25,5.61818 -1.925,3.08569 -4.4335,6.62363 -5.5745,7.8621 -1.141,1.23847 -3.0709,3.94063 -4.2888,6.00479 -2.8494,4.82938 -13.7222,19.79057 -17.7504,24.42485 -1.7126,1.97023 -3.8341,4.99153 -4.7146,6.714 -0.8804,1.72247 -2.9667,4.42101 -4.6362,5.99676 -1.6695,1.57574 -3.0355,3.24667 -3.0355,3.71318 0,0.46651 -3.375,4.87077 -7.5,9.78723 -4.125,4.91647 -7.5,9.43464 -7.5,10.04038 0,0.60574 -1.0125,2.09187 -2.25,3.30251 -1.2375,1.21064 -4.05,4.35997 -6.25,6.99851 -5.2738,6.32503 -6.4743,7.52967 -7.504,7.52967 -0.4737,0 -1.1699,0.97251 -1.5471,2.16113 -0.3773,1.18861 -3.1076,4.56351 -6.0674,7.49976 -2.9598,2.93625 -5.3815,5.82187 -5.3815,6.41248 0,0.59062 -2.7031,3.71061 -6.0068,6.93331 -3.3084,3.22719 -6.8614,7.85288 -7.909,10.29682 -1.3933,3.2506 -2.728,4.72528 -4.9904,5.51397 -1.7123,0.59691 -3.6237,2.25149 -4.2898,3.71343 -0.7121,1.5629 -3.2587,3.66727 -6.2527,5.16695 -2.7782,1.39158 -5.7263,3.10062 -6.5513,3.79787 -0.825,0.69725 -2.625,1.57202 -4,1.94394 -1.375,0.37191 -4.1464,1.37495 -6.1587,2.22897 -3.3568,1.42466 -4.0993,1.40644 -9,-0.22081 -6.101,-2.02584 -10.0096,-5.73352 -13.3553,-12.6689 -3.1328,-6.49405 -3.6159,-10.10641 -3.595,-26.88428 0.012,-9.82881 0.5044,-16.13918 1.5516,-19.89464 0.8435,-3.025 1.5521,-7.3 1.5746,-9.5 0.023,-2.2 0.9581,-7.15 2.079,-11 1.9305,-6.63113 3.4742,-13.62289 4.3604,-19.75 0.2473,-1.70943 -0.062,-2.75 -0.8173,-2.75 -1.1901,0 -7.8232,9.44668 -10.9656,15.61683 -0.873,1.71425 -3.2418,5.28427 -5.2639,7.93338 -2.0221,2.64911 -4.854,7.00749 -6.2932,9.68529 -5.3166,9.89257 -6.0394,11.07848 -8.3166,13.64456 -1.2787,1.44097 -3.1665,4.2866 -4.195,6.32364 -1.0285,2.03703 -2.5979,4.52768 -3.4875,5.53477 -4.3623,4.9384 -8.1057,10.2976 -9.4647,13.55002 -0.8278,1.98129 -2.453,4.18941 -3.6114,4.90693 -1.1585,0.71752 -3.4598,4.07713 -5.1139,7.46581 -1.6542,3.38868 -4.1146,6.88655 -5.4675,7.77305 -1.353,0.88651 -2.46,2.53607 -2.46,3.6657 0,1.12962 -1.404,3.45783 -3.1199,5.17378 -1.716,1.71595 -3.95,5.05633 -4.9645,7.42307 -1.0314,2.40632 -2.5225,4.30317 -3.3827,4.30317 -0.8459,0 -3.1041,1.73337 -5.0181,3.85194 -4.1372,4.57941 -10.0414,8.78462 -13.5251,9.63313 -1.6958,0.41305 -4.1293,-0.2406 -7.5,-2.01462 z"
       id="path235" /></g></svg>
